<mxfile host="app.diagrams.net" modified="2021-06-02T09:28:47.476Z" agent="5.0 (Macintosh; Intel Mac OS X 10_15_6) AppleWebKit/537.36 (KHTML, like Gecko) Chrome/90.0.4430.212 Safari/537.36" etag="xrgBDl2G9lLvuj_5KI-7" version="14.7.3" type="github">
  <diagram name="Page-1" id="c7558073-3199-34d8-9f00-42111426c3f3">
    <mxGraphModel dx="1351" dy="766" grid="1" gridSize="10" guides="1" tooltips="1" connect="1" arrows="1" fold="1" page="1" pageScale="1" pageWidth="826" pageHeight="1169" background="none" math="0" shadow="0">
      <root>
        <mxCell id="0" />
        <mxCell id="1" parent="0" />
        <mxCell id="vt4hqVxNCYeQsPuiLrIM-98" value="Let&#39;s go!" style="ellipse;whiteSpace=wrap;html=1;" vertex="1" parent="1">
          <mxGeometry x="360" y="50" width="120" height="80" as="geometry" />
        </mxCell>
        <mxCell id="vt4hqVxNCYeQsPuiLrIM-99" value="" style="endArrow=classic;html=1;" edge="1" parent="1">
          <mxGeometry width="50" height="50" relative="1" as="geometry">
            <mxPoint x="419.5" y="130" as="sourcePoint" />
            <mxPoint x="420" y="220" as="targetPoint" />
          </mxGeometry>
        </mxCell>
        <mxCell id="vt4hqVxNCYeQsPuiLrIM-100" value="" style="swimlane;startSize=0;" vertex="1" parent="1">
          <mxGeometry x="360" y="240" width="120" height="70" as="geometry" />
        </mxCell>
        <mxCell id="vt4hqVxNCYeQsPuiLrIM-101" value="Offres Actives&lt;br&gt;" style="text;html=1;align=center;verticalAlign=middle;resizable=0;points=[];autosize=1;strokeColor=none;" vertex="1" parent="vt4hqVxNCYeQsPuiLrIM-100">
          <mxGeometry x="15" y="20" width="90" height="20" as="geometry" />
        </mxCell>
        <mxCell id="vt4hqVxNCYeQsPuiLrIM-102" value="" style="endArrow=classic;html=1;" edge="1" parent="1">
          <mxGeometry width="50" height="50" relative="1" as="geometry">
            <mxPoint x="340" y="280" as="sourcePoint" />
            <mxPoint x="280" y="280" as="targetPoint" />
          </mxGeometry>
        </mxCell>
        <mxCell id="vt4hqVxNCYeQsPuiLrIM-103" value="Profit" style="rhombus;whiteSpace=wrap;html=1;" vertex="1" parent="1">
          <mxGeometry x="190" y="240" width="80" height="80" as="geometry" />
        </mxCell>
        <mxCell id="vt4hqVxNCYeQsPuiLrIM-104" value="" style="endArrow=classic;html=1;" edge="1" parent="1">
          <mxGeometry width="50" height="50" relative="1" as="geometry">
            <mxPoint x="180" y="280" as="sourcePoint" />
            <mxPoint x="120" y="280" as="targetPoint" />
          </mxGeometry>
        </mxCell>
        <mxCell id="vt4hqVxNCYeQsPuiLrIM-107" value="Account" style="rounded=0;whiteSpace=wrap;html=1;" vertex="1" parent="1">
          <mxGeometry x="10" y="240" width="90" height="60" as="geometry" />
        </mxCell>
        <mxCell id="vt4hqVxNCYeQsPuiLrIM-108" value="" style="endArrow=classic;html=1;exitX=0.5;exitY=0;exitDx=0;exitDy=0;" edge="1" parent="1" source="vt4hqVxNCYeQsPuiLrIM-107">
          <mxGeometry width="50" height="50" relative="1" as="geometry">
            <mxPoint x="15" y="160" as="sourcePoint" />
            <mxPoint x="170" y="180" as="targetPoint" />
            <Array as="points">
              <mxPoint x="55" y="180" />
            </Array>
          </mxGeometry>
        </mxCell>
        <mxCell id="vt4hqVxNCYeQsPuiLrIM-109" value="Valide" style="rhombus;whiteSpace=wrap;html=1;" vertex="1" parent="1">
          <mxGeometry x="190" y="130" width="80" height="80" as="geometry" />
        </mxCell>
        <mxCell id="vt4hqVxNCYeQsPuiLrIM-111" value="" style="endArrow=classic;html=1;" edge="1" parent="1">
          <mxGeometry width="50" height="50" relative="1" as="geometry">
            <mxPoint x="290" y="170" as="sourcePoint" />
            <mxPoint x="380" y="220" as="targetPoint" />
            <Array as="points">
              <mxPoint x="380" y="170" />
            </Array>
          </mxGeometry>
        </mxCell>
        <mxCell id="vt4hqVxNCYeQsPuiLrIM-112" value="" style="endArrow=classic;html=1;" edge="1" parent="1">
          <mxGeometry width="50" height="50" relative="1" as="geometry">
            <mxPoint x="490" y="279.5" as="sourcePoint" />
            <mxPoint x="550" y="280" as="targetPoint" />
          </mxGeometry>
        </mxCell>
        <mxCell id="vt4hqVxNCYeQsPuiLrIM-113" value="Voir Offre" style="rhombus;whiteSpace=wrap;html=1;" vertex="1" parent="1">
          <mxGeometry x="560" y="240" width="80" height="80" as="geometry" />
        </mxCell>
        <mxCell id="vt4hqVxNCYeQsPuiLrIM-114" value="" style="endArrow=classic;html=1;" edge="1" parent="1">
          <mxGeometry width="50" height="50" relative="1" as="geometry">
            <mxPoint x="650" y="280" as="sourcePoint" />
            <mxPoint x="700" y="280" as="targetPoint" />
          </mxGeometry>
        </mxCell>
        <mxCell id="vt4hqVxNCYeQsPuiLrIM-117" value="View Offer" style="rounded=0;whiteSpace=wrap;html=1;" vertex="1" parent="1">
          <mxGeometry x="720" y="240" width="90" height="60" as="geometry" />
        </mxCell>
        <mxCell id="vt4hqVxNCYeQsPuiLrIM-118" value="" style="endArrow=classic;html=1;exitX=0.433;exitY=-0.017;exitDx=0;exitDy=0;exitPerimeter=0;" edge="1" parent="1" source="vt4hqVxNCYeQsPuiLrIM-117">
          <mxGeometry width="50" height="50" relative="1" as="geometry">
            <mxPoint x="760" y="230" as="sourcePoint" />
            <mxPoint x="660" y="170" as="targetPoint" />
            <Array as="points">
              <mxPoint x="760" y="170" />
            </Array>
          </mxGeometry>
        </mxCell>
        <mxCell id="vt4hqVxNCYeQsPuiLrIM-119" value="Retour" style="rhombus;whiteSpace=wrap;html=1;" vertex="1" parent="1">
          <mxGeometry x="560" y="130" width="80" height="80" as="geometry" />
        </mxCell>
        <mxCell id="vt4hqVxNCYeQsPuiLrIM-120" value="" style="endArrow=classic;html=1;" edge="1" parent="1">
          <mxGeometry width="50" height="50" relative="1" as="geometry">
            <mxPoint x="540" y="170" as="sourcePoint" />
            <mxPoint x="480" y="220" as="targetPoint" />
            <Array as="points">
              <mxPoint x="480" y="170" />
            </Array>
          </mxGeometry>
        </mxCell>
        <mxCell id="vt4hqVxNCYeQsPuiLrIM-123" value="" style="endArrow=classic;html=1;" edge="1" parent="1">
          <mxGeometry width="50" height="50" relative="1" as="geometry">
            <mxPoint x="760" y="310" as="sourcePoint" />
            <mxPoint x="760" y="360" as="targetPoint" />
          </mxGeometry>
        </mxCell>
        <mxCell id="vt4hqVxNCYeQsPuiLrIM-124" value="Coopter" style="rhombus;whiteSpace=wrap;html=1;" vertex="1" parent="1">
          <mxGeometry x="720" y="370" width="80" height="80" as="geometry" />
        </mxCell>
        <mxCell id="vt4hqVxNCYeQsPuiLrIM-126" value="" style="endArrow=classic;html=1;" edge="1" parent="1">
          <mxGeometry width="50" height="50" relative="1" as="geometry">
            <mxPoint x="710" y="410" as="sourcePoint" />
            <mxPoint x="650" y="409.5" as="targetPoint" />
          </mxGeometry>
        </mxCell>
        <mxCell id="vt4hqVxNCYeQsPuiLrIM-127" value="" style="rhombus;whiteSpace=wrap;html=1;" vertex="1" parent="1">
          <mxGeometry x="560" y="370" width="80" height="80" as="geometry" />
        </mxCell>
        <mxCell id="vt4hqVxNCYeQsPuiLrIM-134" value="" style="rhombus;whiteSpace=wrap;html=1;" vertex="1" parent="1">
          <mxGeometry x="240" y="390" width="80" height="80" as="geometry" />
        </mxCell>
        <mxCell id="vt4hqVxNCYeQsPuiLrIM-135" value="" style="endArrow=classic;html=1;" edge="1" parent="1">
          <mxGeometry width="50" height="50" relative="1" as="geometry">
            <mxPoint x="600" y="470" as="sourcePoint" />
            <mxPoint x="600" y="520" as="targetPoint" />
          </mxGeometry>
        </mxCell>
        <mxCell id="vt4hqVxNCYeQsPuiLrIM-136" value="Offres actives" style="rounded=0;whiteSpace=wrap;html=1;" vertex="1" parent="1">
          <mxGeometry x="555" y="540" width="90" height="60" as="geometry" />
        </mxCell>
        <mxCell id="vt4hqVxNCYeQsPuiLrIM-139" value="" style="endArrow=classic;html=1;" edge="1" parent="1">
          <mxGeometry width="50" height="50" relative="1" as="geometry">
            <mxPoint x="590" y="620" as="sourcePoint" />
            <mxPoint x="540" y="670" as="targetPoint" />
          </mxGeometry>
        </mxCell>
        <mxCell id="vt4hqVxNCYeQsPuiLrIM-140" value="" style="endArrow=classic;html=1;" edge="1" parent="1">
          <mxGeometry width="50" height="50" relative="1" as="geometry">
            <mxPoint x="610" y="620" as="sourcePoint" />
            <mxPoint x="660" y="665" as="targetPoint" />
          </mxGeometry>
        </mxCell>
        <mxCell id="vt4hqVxNCYeQsPuiLrIM-141" value="Voir" style="rhombus;whiteSpace=wrap;html=1;" vertex="1" parent="1">
          <mxGeometry x="460" y="680" width="80" height="80" as="geometry" />
        </mxCell>
        <mxCell id="vt4hqVxNCYeQsPuiLrIM-142" value="Coopter" style="rhombus;whiteSpace=wrap;html=1;" vertex="1" parent="1">
          <mxGeometry x="640" y="680" width="80" height="80" as="geometry" />
        </mxCell>
        <mxCell id="vt4hqVxNCYeQsPuiLrIM-143" value="Ajout Cooptation" style="rounded=0;whiteSpace=wrap;html=1;" vertex="1" parent="1">
          <mxGeometry x="635" y="840" width="90" height="60" as="geometry" />
        </mxCell>
        <mxCell id="vt4hqVxNCYeQsPuiLrIM-144" value="" style="endArrow=classic;html=1;" edge="1" parent="1">
          <mxGeometry width="50" height="50" relative="1" as="geometry">
            <mxPoint x="679.5" y="770" as="sourcePoint" />
            <mxPoint x="679.5" y="830" as="targetPoint" />
          </mxGeometry>
        </mxCell>
        <mxCell id="vt4hqVxNCYeQsPuiLrIM-145" value="" style="endArrow=classic;html=1;" edge="1" parent="1">
          <mxGeometry width="50" height="50" relative="1" as="geometry">
            <mxPoint x="499.5" y="770" as="sourcePoint" />
            <mxPoint x="499.5" y="830" as="targetPoint" />
          </mxGeometry>
        </mxCell>
        <mxCell id="vt4hqVxNCYeQsPuiLrIM-147" value="View Offer" style="rounded=0;whiteSpace=wrap;html=1;" vertex="1" parent="1">
          <mxGeometry x="450" y="840" width="90" height="60" as="geometry" />
        </mxCell>
        <mxCell id="vt4hqVxNCYeQsPuiLrIM-148" value="" style="endArrow=classic;html=1;" edge="1" parent="1">
          <mxGeometry width="50" height="50" relative="1" as="geometry">
            <mxPoint x="519.5" y="920" as="sourcePoint" />
            <mxPoint x="519.5" y="960" as="targetPoint" />
          </mxGeometry>
        </mxCell>
        <mxCell id="vt4hqVxNCYeQsPuiLrIM-149" value="" style="endArrow=classic;html=1;" edge="1" parent="1">
          <mxGeometry width="50" height="50" relative="1" as="geometry">
            <mxPoint x="464.71" y="920" as="sourcePoint" />
            <mxPoint x="464.71" y="960" as="targetPoint" />
          </mxGeometry>
        </mxCell>
        <mxCell id="vt4hqVxNCYeQsPuiLrIM-150" value="&lt;font style=&quot;font-size: 9px&quot;&gt;Coopter&lt;/font&gt;" style="rhombus;whiteSpace=wrap;html=1;" vertex="1" parent="1">
          <mxGeometry x="500" y="980" width="50" height="50" as="geometry" />
        </mxCell>
        <mxCell id="vt4hqVxNCYeQsPuiLrIM-151" value="&lt;font style=&quot;font-size: 10px&quot;&gt;Retour&lt;/font&gt;" style="rhombus;whiteSpace=wrap;html=1;" vertex="1" parent="1">
          <mxGeometry x="440" y="980" width="50" height="50" as="geometry" />
        </mxCell>
        <mxCell id="vt4hqVxNCYeQsPuiLrIM-153" value="" style="endArrow=classic;html=1;" edge="1" parent="1">
          <mxGeometry width="50" height="50" relative="1" as="geometry">
            <mxPoint x="560" y="1000" as="sourcePoint" />
            <mxPoint x="640" y="920" as="targetPoint" />
            <Array as="points">
              <mxPoint x="640" y="1000" />
            </Array>
          </mxGeometry>
        </mxCell>
        <mxCell id="vt4hqVxNCYeQsPuiLrIM-154" value="" style="endArrow=classic;html=1;" edge="1" parent="1">
          <mxGeometry width="50" height="50" relative="1" as="geometry">
            <mxPoint x="680" y="910" as="sourcePoint" />
            <mxPoint x="679.71" y="1070" as="targetPoint" />
          </mxGeometry>
        </mxCell>
        <mxCell id="vt4hqVxNCYeQsPuiLrIM-155" value="" style="endArrow=none;html=1;" edge="1" parent="1">
          <mxGeometry width="50" height="50" relative="1" as="geometry">
            <mxPoint x="620" y="1070" as="sourcePoint" />
            <mxPoint x="760" y="1070" as="targetPoint" />
          </mxGeometry>
        </mxCell>
        <mxCell id="vt4hqVxNCYeQsPuiLrIM-156" value="" style="endArrow=classic;html=1;" edge="1" parent="1">
          <mxGeometry width="50" height="50" relative="1" as="geometry">
            <mxPoint x="760" y="1070" as="sourcePoint" />
            <mxPoint x="760" y="1090" as="targetPoint" />
          </mxGeometry>
        </mxCell>
        <mxCell id="vt4hqVxNCYeQsPuiLrIM-157" value="" style="endArrow=classic;html=1;" edge="1" parent="1">
          <mxGeometry width="50" height="50" relative="1" as="geometry">
            <mxPoint x="709.9999999999999" y="1070" as="sourcePoint" />
            <mxPoint x="709.9999999999999" y="1090" as="targetPoint" />
          </mxGeometry>
        </mxCell>
        <mxCell id="vt4hqVxNCYeQsPuiLrIM-158" value="" style="endArrow=classic;html=1;" edge="1" parent="1">
          <mxGeometry width="50" height="50" relative="1" as="geometry">
            <mxPoint x="662.2099999999998" y="1070" as="sourcePoint" />
            <mxPoint x="662.2099999999998" y="1090" as="targetPoint" />
          </mxGeometry>
        </mxCell>
        <mxCell id="vt4hqVxNCYeQsPuiLrIM-159" value="" style="endArrow=classic;html=1;" edge="1" parent="1">
          <mxGeometry width="50" height="50" relative="1" as="geometry">
            <mxPoint x="619.9999999999998" y="1070" as="sourcePoint" />
            <mxPoint x="619.9999999999998" y="1090" as="targetPoint" />
          </mxGeometry>
        </mxCell>
        <mxCell id="vt4hqVxNCYeQsPuiLrIM-160" value="&lt;font style=&quot;font-size: 8px&quot;&gt;Coopter&lt;/font&gt;" style="rhombus;whiteSpace=wrap;html=1;" vertex="1" parent="1">
          <mxGeometry x="742.5" y="1100" width="35" height="40" as="geometry" />
        </mxCell>
        <mxCell id="vt4hqVxNCYeQsPuiLrIM-162" value="&lt;font style=&quot;font-size: 7px&quot;&gt;Coopter&lt;/font&gt;" style="rhombus;whiteSpace=wrap;html=1;" vertex="1" parent="1">
          <mxGeometry x="700" y="1100" width="35" height="40" as="geometry" />
        </mxCell>
        <mxCell id="vt4hqVxNCYeQsPuiLrIM-163" value="&lt;span style=&quot;font-size: 8px&quot;&gt;Coopter&lt;/span&gt;" style="rhombus;whiteSpace=wrap;html=1;" vertex="1" parent="1">
          <mxGeometry x="645" y="1100" width="35" height="40" as="geometry" />
        </mxCell>
        <mxCell id="vt4hqVxNCYeQsPuiLrIM-164" value="&lt;span style=&quot;font-size: 8px&quot;&gt;Coopter&lt;/span&gt;" style="rhombus;whiteSpace=wrap;html=1;" vertex="1" parent="1">
          <mxGeometry x="605" y="1100" width="35" height="40" as="geometry" />
        </mxCell>
        <mxCell id="vt4hqVxNCYeQsPuiLrIM-166" value="" style="endArrow=classic;html=1;exitX=0;exitY=0.5;exitDx=0;exitDy=0;" edge="1" parent="1" source="vt4hqVxNCYeQsPuiLrIM-151">
          <mxGeometry width="50" height="50" relative="1" as="geometry">
            <mxPoint x="250" y="870" as="sourcePoint" />
            <mxPoint x="420" y="330" as="targetPoint" />
            <Array as="points">
              <mxPoint x="420" y="1005" />
            </Array>
          </mxGeometry>
        </mxCell>
        <mxCell id="vt4hqVxNCYeQsPuiLrIM-170" value="" style="endArrow=classic;html=1;" edge="1" parent="1">
          <mxGeometry relative="1" as="geometry">
            <mxPoint x="455" y="320" as="sourcePoint" />
            <mxPoint x="530" y="400" as="targetPoint" />
          </mxGeometry>
        </mxCell>
        <mxCell id="vt4hqVxNCYeQsPuiLrIM-171" value="Coopteur" style="edgeLabel;resizable=0;html=1;align=center;verticalAlign=middle;" connectable="0" vertex="1" parent="vt4hqVxNCYeQsPuiLrIM-170">
          <mxGeometry relative="1" as="geometry" />
        </mxCell>
        <mxCell id="vt4hqVxNCYeQsPuiLrIM-172" value="" style="endArrow=classic;html=1;" edge="1" parent="1">
          <mxGeometry relative="1" as="geometry">
            <mxPoint x="376" y="320" as="sourcePoint" />
            <mxPoint x="310" y="400" as="targetPoint" />
          </mxGeometry>
        </mxCell>
        <mxCell id="vt4hqVxNCYeQsPuiLrIM-173" value="Recruteur" style="edgeLabel;resizable=0;html=1;align=center;verticalAlign=middle;" connectable="0" vertex="1" parent="vt4hqVxNCYeQsPuiLrIM-172">
          <mxGeometry relative="1" as="geometry" />
        </mxCell>
      </root>
    </mxGraphModel>
  </diagram>
</mxfile>
